<svg width="64" height="64" viewBox="0 0 64 64" fill="none" xmlns="http://www.w3.org/2000/svg"><path d="M32 8L28 12L24 16L20 12L24 8L28 4L32 8Z" fill="#FFD700"/><path d="M32 8L36 12L40 16L44 12L40 8L36 4L32 8Z" fill="#FFA500"/><path d="M32 16L28 20L24 24L28 28L32 24L36 28L40 24L36 20L32 16Z" fill="#FFD700"/><circle cx="32" cy="32" r="8" fill="#FFFF00"/><path d="M16 32L20 28L24 32L20 36L16 32Z" fill="#FFA500"/><path d="M48 32L44 28L40 32L44 36L48 32Z" fill="#FFA500"/><path d="M32 48L28 44L24 48L28 52L32 56L36 52L40 48L36 44L32 48Z" fill="#FFD700"/></svg>
