<?xml version="1.0" encoding="UTF-8"?>
<svg id="Capa_1" data-name="Capa 1" xmlns="http://www.w3.org/2000/svg" viewBox="0 0 743.62 236.29">
  <defs>
    <style>
      .cls-1 {
        fill: #0065dd;
      }
    </style>
  </defs>
  <g id="Logo">
    <polygon class="cls-1" points="43.25 101.51 43.25 118.93 64.72 118.93 64.72 180.46 84.98 180.46 84.98 118.93 106.43 118.93 106.43 101.51 43.25 101.51"/>
    <path class="cls-1" d="M297.5,71.97c0,9.54-7.74,17.28-17.28,17.28-9.54,0-17.28-7.74-17.28-17.28s7.74-17.28,17.28-17.28c9.54,0,17.28,7.74,17.28,17.28"/>
    <path class="cls-1" d="M342.39,71.97c0,9.54-7.74,17.28-17.28,17.28-9.54,0-17.28-7.74-17.28-17.28,0-9.54,7.74-17.28,17.28-17.28,9.54,0,17.28,7.74,17.28,17.28"/>
    <path class="cls-1" d="M529.29,140c0-13.02-9.2-22.9-21.78-22.9-12.57,0-21.66,9.88-21.66,22.9,0,13.02,9.09,22.9,21.66,22.9,12.57,0,21.78-9.88,21.78-22.9M465.87,140c0-22.11,17.51-40.52,41.64-40.52,24.13,0,41.64,18.41,41.64,40.52,0,22.11-17.51,40.52-41.64,40.52-24.13,0-41.64-18.41-41.64-40.52"/>
    <path class="cls-1" d="M225.71,140.12v-6.36c0-10.75-4.66-16.36-15.28-16.36-10.51,0-15.28,5.61-15.28,16.36v6.36s30.57,0,30.57,0ZM176.27,133.76c0-21.25,12.06-34.27,34.27-34.27,22.33,0,34.51,13.02,34.51,34.27v45.63s-19.35,0-19.35,0v-22.83s-30.57,0-30.57,0v22.83s-18.87,0-18.87,0v-45.63Z"/>
    <path class="cls-1" d="M360.28,150.09v-49.66s19.47,0,19.47,0v49.66c0,9.14,4.45,12.38,10.34,12.38,5.77,0,10.34-3.24,10.34-12.38v-49.66s19.47,0,19.47,0v49.66c0,9.14,4.57,12.38,10.34,12.38,5.89,0,10.34-3.24,10.34-12.38v-49.66s19.47,0,19.47,0v49.66c0,21.03-12.26,30.41-28.13,30.41-9.5,0-17.07-3.73-21.76-10.82-4.69,7.09-12.26,10.82-21.75,10.82-15.87,0-28.13-9.38-28.13-30.41"/>
    <path class="cls-1" d="M650.09,180.47h-20.31s0-78.95,0-78.95h20.31s0,36.38,0,36.38l21.31-36.38h20.28s0,3.32,0,3.32l-22.11,36.13,8.33,15.42c4.2,8.17,6.24,8.97,10.33,8.97,1.47,0,3.63-.79,5.56-2.04,2.16,4.77,4.43,9.31,6.58,13.96-5.9,3.18-9.99,4.31-16,4.31-9.53,0-18.16-4.88-23.49-16.46l-10.78-20.19v35.52Z"/>
    <polygon class="cls-1" points="114.17 180.46 114.17 101.51 168.53 101.51 168.53 117.98 134.43 117.98 134.43 133.21 164.02 133.21 164.02 148.78 134.43 148.78 134.43 163.99 168.53 163.99 168.53 180.46 114.17 180.46"/>
    <path class="cls-1" d="M585.36,115.61c8.83,0,13.44,2.87,13.44,12.19,0,8.73-4.61,12.19-13.44,12.19h-10.01s0-24.39,0-24.39h10.01ZM612.37,148.36c5.4-5.4,8.4-12.96,8.4-20.72,0-13.92-10.69-28.15-28.15-28.15h-37.64s0,79.9,0,79.9h20.38s0-22.88,0-22.88h11.1c8.84,0,13.46,3.3,13.46,11.93v10.94s20.86,0,20.86,0v-10.99h0c-.04-7.31-3.02-14.69-8.39-20.05"/>
    <path class="cls-1" d="M252.78,129.9c0-21.03,12.26-30.41,28.13-30.41,9.5,0,17.07,3.73,21.75,10.82,4.69-7.09,12.26-10.82,21.76-10.82,15.87,0,28.13,9.38,28.13,30.41v49.49s-19.47,0-19.47,0v-49.49c0-9.14-4.45-12.38-10.34-12.38-5.77,0-10.34,3.24-10.34,12.38v49.49s-19.47,0-19.47,0v-49.49c0-9.14-4.57-12.38-10.34-12.38-5.89,0-10.34,3.24-10.34,12.38v49.49s-19.47,0-19.47,0v-49.49Z"/>
  </g>
</svg>