<?xml version="1.0" encoding="UTF-8"?>
<svg id="Capa_1" data-name="Capa 1" xmlns="http://www.w3.org/2000/svg" viewBox="0 0 743.62 236.29">
  <defs>
    <style>
      .cls-1 {
        fill: #fff;
      }
    </style>
  </defs>
  <circle class="cls-1" cx="676.82" cy="150.83" r="13.5" transform="translate(-15.42 110.36) rotate(-9.22)"/>
  <circle class="cls-1" cx="72.59" cy="73.14" r="13.5"/>
  <polygon class="cls-1" points="64.72 181.53 80.48 181.53 80.48 133.67 97.16 133.67 97.16 120.12 48.02 120.12 48.02 133.67 64.72 133.67 64.72 181.53"/>
  <polygon class="cls-1" points="362.59 181.53 378.35 181.53 378.35 133.67 395.04 133.67 395.04 120.12 345.89 120.12 345.89 133.67 362.59 133.67 362.59 181.53"/>
  <path class="cls-1" d="M433.17,182.35c18.77,0,32.39-14.32,32.39-31.52s-13.62-31.52-32.39-31.52-32.4,14.32-32.4,31.52,13.62,31.52,32.4,31.52ZM433.17,133.01c9.78,0,16.94,7.68,16.94,17.81s-7.16,17.81-16.94,17.81-16.85-7.68-16.85-17.81,7.07-17.81,16.85-17.81Z"/>
  <path class="cls-1" d="M119.47,164.15h23.78v17.76h15.05v-35.5c0-16.53-9.47-26.66-26.85-26.66s-26.66,10.13-26.66,26.66v35.5h14.68v-17.76ZM119.47,146.41c0-8.36,3.72-12.73,11.89-12.73s11.89,4.37,11.89,12.73v4.95h-23.78v-4.95Z"/>
  <path class="cls-1" d="M549.38,164.15h23.78v17.76h15.05v-35.5c0-16.53-9.47-26.66-26.85-26.66s-26.66,10.13-26.66,26.66v35.5h14.68v-17.76ZM549.38,146.41c0-8.36,3.72-12.73,11.89-12.73s11.89,4.37,11.89,12.73v4.95h-23.78v-4.95Z"/>
  <polygon class="cls-1" points="267.95 168.72 241.42 168.72 241.42 156.89 264.44 156.89 264.44 144.78 241.42 144.78 241.42 132.93 267.95 132.93 267.95 120.12 225.66 120.12 225.66 181.53 267.95 181.53 267.95 168.72"/>
  <path class="cls-1" d="M298.23,146.48c0-8.24,3.66-12.54,11.7-12.54s11.72,4.31,11.72,12.54v34.96h14.81v-34.96c0-16.29-9.33-26.26-26.44-26.26s-26.25,9.97-26.25,26.26v34.96h14.45v-34.96Z"/>
  <polygon class="cls-1" points="214.89 168.44 188.76 168.44 188.76 120.58 173.25 120.58 173.25 181.07 214.89 181.07 214.89 168.44"/>
  <path class="cls-1" d="M505.5,170.07c-1.45,1.08-3.43,1.62-5.93,1.62-3.91,0-6.73-.8-8.47-2.39-1.74-1.6-2.61-4.07-2.61-7.44h-15.17c0,4.14,1.04,7.79,3.12,10.97,2.08,3.18,5.19,5.68,9.31,7.5,4.12,1.82,8.73,2.74,13.82,2.74,7.21,0,12.89-1.57,17.03-4.7,4.14-3.13,6.21-7.44,6.21-12.93,0-6.87-3.39-12.26-10.17-16.16-2.79-1.61-6.35-3.11-10.69-4.51-4.34-1.39-7.37-2.74-9.09-4.05-1.72-1.31-2.59-2.77-2.59-4.38,0-1.84.78-3.35,2.35-4.55,1.56-1.19,3.7-1.79,6.4-1.79s4.79.7,6.36,2.11c1.57,1.41,2.35,3.39,2.35,5.95h15.09c0-3.82-.99-7.22-2.97-10.19-1.98-2.97-4.76-5.27-8.34-6.88-3.58-1.61-7.62-2.41-12.13-2.41s-8.79.74-12.5,2.22c-3.71,1.48-6.57,3.55-8.6,6.21-2.03,2.66-3.04,5.73-3.04,9.2,0,6.98,4.07,12.47,12.2,16.47,2.5,1.24,5.72,2.52,9.66,3.84,3.94,1.32,6.69,2.6,8.25,3.84,1.57,1.24,2.35,2.96,2.35,5.17,0,1.95-.73,3.47-2.18,4.55Z"/>
  <path class="cls-1" d="M630.55,170.07c-1.45,1.08-3.43,1.62-5.93,1.62-3.91,0-6.73-.8-8.47-2.39-1.74-1.6-2.61-4.07-2.61-7.44h-15.17c0,4.14,1.04,7.79,3.12,10.97,2.08,3.18,5.19,5.68,9.31,7.5,4.12,1.82,8.73,2.74,13.82,2.74,7.21,0,12.89-1.57,17.03-4.7,4.14-3.13,6.21-7.44,6.21-12.93,0-6.87-3.39-12.26-10.17-16.16-2.79-1.61-6.35-3.11-10.69-4.51-4.34-1.39-7.37-2.74-9.09-4.05-1.72-1.31-2.59-2.77-2.59-4.38,0-1.84.78-3.35,2.35-4.55,1.56-1.19,3.7-1.79,6.4-1.79s4.79.7,6.36,2.11c1.57,1.41,2.35,3.39,2.35,5.95h15.09c0-3.82-.99-7.22-2.97-10.19-1.98-2.97-4.76-5.27-8.34-6.88-3.58-1.61-7.62-2.41-12.13-2.41s-8.79.74-12.5,2.22c-3.71,1.48-6.57,3.55-8.6,6.21-2.03,2.66-3.04,5.73-3.04,9.2,0,6.98,4.07,12.47,12.2,16.47,2.5,1.24,5.72,2.52,9.66,3.84,3.94,1.32,6.69,2.6,8.25,3.84,1.57,1.24,2.35,2.96,2.35,5.17,0,1.95-.73,3.47-2.18,4.55Z"/>
  <polygon class="cls-1" points="112.35 92.06 137.94 92.07 137.95 85.18 121.31 85.17 121.31 76.29 135.4 76.3 135.4 69.67 121.32 69.66 121.32 61.82 138.01 61.84 138.02 54.92 112.37 54.9 112.35 92.06"/>
  <polygon class="cls-1" points="171.78 54.94 161.55 54.94 155.46 67.28 149.4 54.93 139.19 54.92 149.54 73.35 138.88 92.07 149.19 92.08 155.45 79.51 161.7 92.09 172.03 92.1 161.38 73.36 171.78 54.94"/>
  <path class="cls-1" d="M197.33,56.53c-2.19-1.05-4.7-1.57-7.54-1.57h-14.83s-.03,37.14-.03,37.14h8.96s0-12.6,0-12.6h5.72c4.53,0,8.09-1.07,10.68-3.24,2.6-2.17,3.9-5.06,3.9-8.69,0-2.45-.6-4.64-1.79-6.57-1.2-1.93-2.89-3.42-5.07-4.47ZM193.75,71.29c-.91.87-2.23,1.3-3.97,1.3h-5.87s0-10.72,0-10.72h5.97c1.62.02,2.89.55,3.83,1.59.93,1.04,1.4,2.43,1.4,4.16,0,1.58-.46,2.81-1.37,3.67Z"/>
  <path class="cls-1" d="M232.61,56.73c-2.47-1.5-5.27-2.25-8.42-2.25-3.18,0-6.02.75-8.51,2.27-2.49,1.51-4.41,3.66-5.75,6.44-1.34,2.78-2.01,5.99-2.01,9.63v2.09c.06,3.51.78,6.61,2.15,9.32,1.37,2.71,3.28,4.79,5.72,6.24,2.45,1.46,5.26,2.19,8.42,2.19s5.98-.75,8.46-2.25c2.48-1.5,4.39-3.65,5.73-6.44,1.35-2.79,2.02-6,2.02-9.62v-1.71c-.01-3.57-.7-6.74-2.07-9.51-1.37-2.77-3.28-4.9-5.75-6.4ZM231.32,74.48c-.02,3.61-.64,6.37-1.87,8.29-1.23,1.92-2.97,2.88-5.23,2.88-2.38,0-4.18-.98-5.38-2.94-1.21-1.96-1.81-4.76-1.81-8.4l.03-2.73c.26-6.74,2.64-10.1,7.13-10.1,2.3,0,4.06.96,5.29,2.87,1.23,1.91,1.85,4.72,1.84,8.41v1.71Z"/>
  <path class="cls-1" d="M29.58,40.65v159.27h679.26V40.65H29.58ZM706.46,197.54H31.95v-91.91h674.51v91.91ZM31.95,103.26v-60.24h674.51v60.24H31.95Z"/>
</svg>